/* XPM */
static char *result[] = {
/* columns rows colors chars-per-pixel */
"50 50 5 1 ",
"  c #080000",
". c #B97371",
"X c #CF9C9B",
"o c #E3C6C5",
"O c None",
/* pixels */
"OOOOOOOOOOOOOOOOO                OOOOOOOOOOOOOOOOO",
"OOOOOOOOOOOOOOOOO                OOOOOOOOOOOOOOOOO",
"OOOOOOOOOOOOO                        OOOOOOOOOOOOO",
"OOOOOOOOOOOOO                        OOOOOOOOOOOOO",
"OOOOOOOOO        XXXXXXXXXXXXXXXX        OOOOOOOOO",
"OOOOOOOOO        XXXXXXXXXXXXXXXX        OOOOOOOOO",
"OOOOOOO      XXooooooooooooooooooooXX      OOOOOOO",
"OOOOOOO      XXooooooooooooooooooooXX      OOOOOOO",
"OOOOO    XXooooooooooooooooooooooooooooXX    OOOOO",
"OOOOO    XXooooooooooooooooooooooooooooXX    OOOOO",
"OOO    XXooooooooooooooooooooooooooooooooXX    OOO",
"OOO    XXooooooooooooooooooooooooooooooooXX    OOO",
"O    XXooooooooooooooooooooooooooooooooooooXX    O",
"O    XXooooooooooooooooooooooooooooooooooooXX    O",
"O    oooooooooooooooooooooooooooooooooooooooo    O",
"O    oooooooooooooooooooooooooooooooooooooooo    O",
"   XXooooooooooooooooooooooooooooooooooooooooXX   ",
"   XXooooooooooooooooooooooooooooooooooooooooXX   ",
"   oooooooooooooooooooooooooooooooooooooooooooo   ",
"   oooooooooooooooooooooooooooooooooooooooooooo   ",
" XXooooooooooooooooooooooooooooooooooooooooooooXX ",
" XXooooooooooooooooooooooooooooooooooooooooooooXX ",
" XXooooooooooooooooooooooooooooooooooooooooooooXX ",
" XXooooooooooooooooooooooooooooooooooooooooooooXX ",
" XXooooooooooooooooooooooooooooooooooooooooooooXX ",
" XXooooooooooooooooooooooooooooooooooooooooooooXX ",
" XXooooooooooooooooooooooooooooooooooooooooooooXX ",
" XXooooooooooooooooooooooooooooooooooooooooooooXX ",
" ..XXooooooooooooooooooooooooooooooooooooooooXX.. ",
" ..XXooooooooooooooooooooooooooooooooooooooooXX.. ",
"   XXooooooooooooooooooooooooooooooooooooooooXX   ",
"   XXooooooooooooooooooooooooooooooooooooooooXX   ",
"   ..XXooooooooooooooooooooooooooooooooooooXX..   ",
"   ..XXooooooooooooooooooooooooooooooooooooXX..   ",
"O    XXooooooooooooooooooooooooooooooooooooXX    O",
"O    XXooooooooooooooooooooooooooooooooooooXX    O",
"O    ..XXooooooooooooooooooooooooooooooooXX..    O",
"O    ..XXooooooooooooooooooooooooooooooooXX..    O",
"OOO    ..XXooooooooooooooooooooooooooooXX..    OOO",
"OOO    ..XXooooooooooooooooooooooooooooXX..    OOO",
"OOOOO    ..XXXXooooooooooooooooooooXXXX..    OOOOO",
"OOOOO    ..XXXXooooooooooooooooooooXXXX..    OOOOO",
"OOOOOOO      ..XXXXooooooooooooXXXX..      OOOOOOO",
"OOOOOOO      ..XXXXooooooooooooXXXX..      OOOOOOO",
"OOOOOOOOO        ..XXXXXXXXXXXX..        OOOOOOOOO",
"OOOOOOOOO        ..XXXXXXXXXXXX..        OOOOOOOOO",
"OOOOOOOOOOOOO                        OOOOOOOOOOOOO",
"OOOOOOOOOOOOO                        OOOOOOOOOOOOO",
"OOOOOOOOOOOOOOOOO                OOOOOOOOOOOOOOOOO",
"OOOOOOOOOOOOOOOOO                OOOOOOOOOOOOOOOOO"
};
