/* XPM */
static char *result[] = {
/* columns rows colors chars-per-pixel */
"50 50 41 1 ",
"  c #020101",
". c #0B0605",
"X c #0D0807",
"o c #0E0A09",
"O c #140C0B",
"+ c #17100E",
"@ c #19110F",
"# c #1C1311",
"$ c #221614",
"% c #251916",
"& c #281A17",
"* c #271B18",
"= c #2C1E1A",
"- c #2E211D",
"; c #32221E",
": c #362521",
"> c #392622",
", c #3E2B26",
"< c #402C27",
"1 c #422E29",
"2 c #46312B",
"3 c #4A332E",
"4 c #4E3630",
"5 c #503731",
"6 c #543A34",
"7 c #593E37",
"8 c #5B3F38",
"9 c #5E413A",
"0 c #64453D",
"q c #67483F",
"w c #674740",
"e c #674840",
"r c #6B4B42",
"t c #714E46",
"y c #735047",
"u c #765249",
"i c #7B554C",
"p c #7F584E",
"a c #80594F",
"s c #845B51",
"d c None",
/* pixels */
"dddddddddddddddddddddddddddddddddddddddddddddddddd",
"dddddddddddddddddddddddddddddddddddddddddddddddddd",
"dddddddddddddddddddddddddddddddddddddddddddddddddd",
"dddddddddddddddddddddddddddddddddddddddddddddddddd",
"ddddddddddddddddddddd@$ddddddddddddddddddddddddddd",
"dddddddddddddddddddd,ui$dddddddddddddddddddddddddd",
"ddddddddddddddddddd-ass;dddddddddddddddddddddddddd",
"dddddddddddddddddd-ssss2dddddddddddddddddddddddddd",
"ddddddddddddddddd%sssss9dddddddddddddddddddddddddd",
"dddddddddddddddd%isssssa$ddddddddddddddddddddddddd",
"dddddddddddddddd8sssssss6.dddddddddddddddddddddddd",
"ddddddddddddddd&asssssssi6&@dddddddddddddddddddddd",
"ddddddddddddddd1ssasssssapr05,=@Xddddddddddddddddd",
"ddddddddddddddd7iassssssssaiutrq7;dddddddddddddddd",
"ddddddddddddddO7tusssssssssspppppp3ddddddddddddddd",
"ddddddddddddddO7qtussssssssssssssap=dddddddddddddd",
"ddddddddddddddO600tuassssssssssssss7dddddddddddddd",
"dddddddddddd   300qtiasssssssssspiu0Oddddddddddddd",
"ddddddddddd&w0o-0000ryipsssssssiyrq9Oddddddddddddd",
"dddddddddd#tpu#o6000qrryiipiiuurr006Xddddddddddddd",
"dddddddddXrssa2 $600000qrtttrre0000> ddddddddddddd",
"ddddddddd>asssy@ o30000090000000006O  dddddddddddd",
"dddddddd 9pssssqO  =60000000000009% +3;ddddddddddd",
"dddddddd.wuassss7@  @270000090006% .6uu$dddddddddd",
"ddddddddOqriassssp2o   #;,4553:@  @0iipr.ddddddddd",
"ddddddddO0ryiasssssp6-o         #5paaiur&ddddddddd",
"dddddddd.00ryiassssssssy92,,240psssapyqq>ddddddddd",
"dddddddd 60qruaasssssssspssspsssssspurq0:ddddddddd",
"dddddd@O :00qrupssssssssssssssssssairw00$  ddddddd",
"ddddd=8q .900qrupssssssssssssssssairr007 $1$dddddd",
"dddd-8tu: %900qruisssssssssssssspurr000%.wr7&ddddd",
"dddO30tur  ,000qrtippssssssppppiurr0004 :ut02.dddd",
"ddd-50rpa3  %700wertyuuiuuuuuytteeq904 +iiyq6%dddd",
"dd.<68russ2  .,0000eerrrrrereeq9q999- +yspuq9:dddd",
"ddO250ruass0+  O,70w0000e00e9e0099-X %isspur71.ddd",
"dd@258qtpsssp2X   #2699090e9996,#  o4pssspur73.ddd",
"dd@2370tipssssr,+   .o+##*##+o   #,ypsssapt063Oddd",
"dd@13580ripsssssyw1%+o.  .oo+#;49usssssppur963Oddd",
"ddO,1368wtipssssssspirwwrrtyupsssssssspiur0763Xddd",
"dd.>12357wruippssssssssspspspsssssssspiuw07561dddd",
"ddd=1123570rruipppsssssssssssssssaapiutw06657=dddd",
"dddO,,1134690rryuiipppppspppppppiiutr00753566Odddd",
"dddd%,1,1234670wettyuiiiiiiiiiuytrw087554560&ddddd",
"dddd.:,1,1222467890wwewrrrrreee908755333570>dddddd",
"ddddd#,,,111124466789w9www90999765543335804Odddddd",
"dddddd#:1,,,1111244666676766655442223568q>Oddddddd",
"dddddddo=,,,,111112224444444333222356700=ddddddddd",
"ddddddddd#:111112222222422423233556800<Odddddddddd",
"dddddddddd.$>2333333343334344456680w6= ddddddddddd",
"dddddddddddddo$>469666667666779907>Odddddddddddddd"
};
