/* XPM */
static char *result[] = {
/* columns rows colors chars-per-pixel */
"50 50 31 1 ",
"  c black",
". c #0C0908",
"X c #141312",
"o c #1E1D1C",
"O c #2B0808",
"+ c #2A2625",
"@ c #33302E",
"# c #49100F",
"$ c #661717",
"% c #413A38",
"& c #4A4844",
"* c #535656",
"= c #626360",
"- c #71706F",
"; c #831F1F",
": c #A62827",
"> c #827372",
", c #877E7D",
"< c #908F8F",
"1 c #9F9E9E",
"2 c #B1B2AF",
"3 c #C7BAB8",
"4 c #CAC9C9",
"5 c #D8D8D8",
"6 c #D9D8D8",
"7 c #E6E6E6",
"8 c #EFEEEE",
"9 c #F4F4F4",
"0 c gray98",
"q c white",
"w c None",
/* pixels */
"wwwwwwwwwwwwwwwwwwwwwwwwwwwwwwwwwwwwwwwwwwwwwwwwww",
"wwwwwwwwwwwwwwwwwwwwwwwwwwwwwwwwwwwwwwwwwwwwwwwwww",
"wwwwwwwwwwwwwwwwwwwwwwwwwwwwwwwwwwwwwwwwwwwwwwwwww",
"wwwwwwwwwwwwwwwwwwwwwwwwwwwwwwwwwwwwwwwwwwwwwwwwww",
"wwwwwwwwwwwwwwwwwwwwwwwwwwwwwwwwwwwwwwwwwwwwwwwwww",
"wwwwwwwwwwwwwwwwwwwwwwwwwwwwwwwwwwwwwwwwwwwwwwwwww",
"wwwwwwwwwwwwwwwwwwwwwwwwwwwwwwwwwwwwwwwwwwwwwwwwww",
"wwwwwwwwwwwwwwwwwwwwwwwwwwwwwwwwwwwwwwwwwwwwwwwwww",
"wwwwwwwwwwwwwwwwwwwwwwwwwwwwwwwwwwwwwwwwwwwwwwwwww",
"wwwwwwwwwwwwwwwwwwwwwwwwwwwwwwwwwwwwwwwwwwwwwwwwww",
"wwwwwwwwwwwwwwwwwwwwwwwwwwwwwwwwwwwwwwwwwwwwwwwwww",
"wwwwwwwwwwwwwwwwwwwwwwwwwwwwwwww2<3wwwwwwwwwwwwwww",
"wwwwwwwwwwwwwwwww2%+>wwwwwwwww2.   ,wwwwwwwwwwwwww",
"wwwwwwwwwwwwwwww1 .X *wwwwwwwwXo24% 5wwwwwwwwwwwww",
"wwwwwwwwwwwwwwww+o1q3 2wwwwww3 3qq9 <wwwwwwwwwwwww",
"wwwwwwwwwwwwwwww ,,qqo-wwwwww3 7qq6 -wwwwwwwwwwwww",
"wwwwwwwwwwwwwwww 4qq0.-1===--= ,qq6 ,wwwwwwwwwwwww",
"wwwwwwwwwwwwwwww %68,           +1- 3wwwwwwwwwwwww",
"wwwwwwwwwwwwwwww<     .$;;;;;;$.   =wwwwwwwwwwwwww",
"wwwwwwwwwwwwwwwww2=-, $:;#. .#$;O 4wwwwwwwwwwwwwww",
"wwwwwwwwwwwwwwwwwwww1 ;;. +&@. .$ <wwwwwwwwwwwwwww",
"wwwwwwwwwwwwwwwwwwww&.:O  X@@X  ;O&wwwwwwwwwwwwwww",
"wwwwwwwwwwwwwwwwwww5 #;         ;O&wwwwwwwwwwwwwww",
"wwwwwwwwwwwwwwwwwww1 ;$        .:O&wwwwwwwwwwwwwww",
"wwwwwwwwwwwwwwwwwww, ;#        O:.=wwwwwwwwwwwwwww",
"wwwwwwwwwwwwwwwwwww* :#        $:.-wwwwwwwwwwwwwww",
"wwwwwwwwwwwwwwwwwww@.:#        ;: <wwwwwwwwwwwwwww",
"wwwwwwwwwwwwwwwwwwwXO:#       .;; 2wwwwwwwwwwwwwww",
"wwwwwwwwwwwwwwwwww4 #:O       .:; 4wwwwwwwwwwwwwww",
"wwwwwwwwwwwwwwwwww3 $:O       .:; 5wwwwwwwwwwwwwww",
"wwwwwwwwwwwwwwwwww2 $:O        ;; 4wwwwwwwwwwwwwww",
"wwwwwwwwwwwwwwwwww2 $:O     oo #; 2wwwwwwwwwwwwwww",
"wwwwwwwwwwwwwwwwww2 $:# &+  %2.O; <wwwwwwwwwwwwwww",
"wwwwwwwwwwwwwwwwww4 #:$ <61*oo.;; 1wwwwwwwwwwwwwww",
"wwwwwwwwwwwwwwwwwww@ :;# .X..#;:# 4wwwwwwwwwwwwwww",
"wwwwwwwwwwwwwwwwwww1 #::;$$;;:;# *wwwwwwwwwwwwwwww",
"wwwwwwwwwwwwwwwwwwww% O;:::;;#  &wwwwwwwwwwwwwwwww",
"wwwwwwwwwwwwwwwwwwwww&   ..   o<wwwwwwwwwwwwwwwwww",
"wwwwwwwwwwwwwwwwwwwwww3=@++%-2wwwwwwwwwwwwwwwwwwww",
"wwwwwwwwwwwwwwwwwwwwwwwwwwwwwwwwwwwwwwwwwwwwwwwwww",
"wwwwwwwwwwwwwwwwwwwwwwwwwwwwwwwwwwwwwwwwwwwwwwwwww",
"wwwwwwwwwwwwwwwwwwwwwwwwwwwwwwwwwwwwwwwwwwwwwwwwww",
"wwwwwwwwwwwwwwwwwwwwwwwwwwwwwwwwwwwwwwwwwwwwwwwwww",
"wwwwwwwwwwwwwwwwwwwwwwwwwwwwwwwwwwwwwwwwwwwwwwwwww",
"wwwwwwwwwwwwwwwwwwwwwwwwwwwwwwwwwwwwwwwwwwwwwwwwww",
"wwwwwwwwwwwwwwwwwwwwwwwwwwwwwwwwwwwwwwwwwwwwwwwwww",
"wwwwwwwwwwwwwwwwwwwwwwwwwwwwwwwwwwwwwwwwwwwwwwwwww",
"wwwwwwwwwwwwwwwwwwwwwwwwwwwwwwwwwwwwwwwwwwwwwwwwww",
"wwwwwwwwwwwwwwwwwwwwwwwwwwwwwwwwwwwwwwwwwwwwwwwwww",
"wwwwwwwwwwwwwwwwwwwwwwwwwwwwwwwwwwwwwwwwwwwwwwwwww"
};
