/* XPM */
static char *result[] = {
/* columns rows colors chars-per-pixel */
"50 50 29 1 ",
"  c black",
". c #0C0908",
"X c #141312",
"o c #1E1D1C",
"O c #2B0808",
"+ c #2A2625",
"@ c #33302E",
"# c #49100F",
"$ c #661717",
"% c #413A38",
"& c #4A4844",
"* c #535656",
"= c #626360",
"- c #71706F",
"; c #831F1F",
": c #A62827",
"> c #827372",
", c #877E7D",
"< c #908F8F",
"1 c #9F9E9E",
"2 c #B1B2AF",
"3 c #C7BAB8",
"4 c #CAC9C9",
"5 c #D8D8D8",
"6 c #D9D8D8",
"7 c #E6E6E6",
"8 c #EFEEEE",
"9 c white",
"0 c None",
/* pixels */
"00000000000000000000000000000000000000000000000000",
"00000000000000000000000000000000000000000000000000",
"00000000000000000000000000000000000000000000000000",
"00000000000000000000000000000000000000000000000000",
"00000000000000000000000000000000000000000000000000",
"00000000000000000000000000000000000000000000000000",
"00000000000000000000000000000000000000000000000000",
"00000000000000000000000000000000000000000000000000",
"00000000000000000000000000000000000000000000000000",
"00000000000000000000000000000000000000000000000000",
"00000000000000000000000000000000000000000000000000",
"00000000000000000000000000000000000000000000000000",
"00000000000000000000000000000000000000000000000000",
"0000000000000005*X.*00000000004-&-4000000000000000",
"000000000000004..&% %00000000< @% .400000000000000",
"00000000000000@+799< 40000000 -991 -00000000000000",
"00000000000004 ,1898 10000005 399< %00000000000000",
"00000000000003 19993 20<,<121 =999 *00000000000000",
"00000000000000@ 261X &         &<% 400000000000000",
"000000000000000o     O$;;;;$$$#   1000000000000000",
"000000000000000= .#$;;;$OO##OO:;.%0000000000000000",
"000000000000000o ;;O.. .@&&X  #:$ 3000000000000000",
"000000000000005 #;.    +&*%.   ;; =000000000000000",
"00000000000000, ;;             #: +000000000000000",
"00000000000000% :;            .O:O.000000000000000",
"00000000000000o :$             O:# 000000000000000",
"00000000000000oO:#             .:# 500000000000000",
"00000000000000.O:O             .:$ 500000000000000",
"00000000000005 #:.             .:$ 500000000000000",
"00000000000004 $:.             .:# 000000000000000",
"00000000000003 $:#    ...      O:OX000000000000000",
"00000000000005 #:;O  .%->-+    #: *000000000000000",
"00000000000000* $::;#.  .X    #;# 3000000000000000",
"000000000000005+ #;::;;$$$$#$;;# *0000000000000000",
"0000000000000005&  O$;::::::;#  *00000000000000000",
"000000000000000002@    ...    @1000000000000000000",
"00000000000000000004<=%@@@%*<400000000000000000000",
"00000000000000000000000000000000000000000000000000",
"00000000000000000000000000000000000000000000000000",
"00000000000000000000000000000000000000000000000000",
"00000000000000000000000000000000000000000000000000",
"00000000000000000000000000000000000000000000000000",
"00000000000000000000000000000000000000000000000000",
"00000000000000000000000000000000000000000000000000",
"00000000000000000000000000000000000000000000000000",
"00000000000000000000000000000000000000000000000000",
"00000000000000000000000000000000000000000000000000",
"00000000000000000000000000000000000000000000000000",
"00000000000000000000000000000000000000000000000000",
"00000000000000000000000000000000000000000000000000"
};
