/* XPM */
static char *result[] = {
/* columns rows colors chars-per-pixel */
"50 50 30 1 ",
"  c black",
". c #0C0908",
"X c #141312",
"o c #1E1D1C",
"O c #2B0808",
"+ c #2A2625",
"@ c #33302E",
"# c #49100F",
"$ c #661717",
"% c #413A38",
"& c #4A4844",
"* c #535656",
"= c #626360",
"- c #71706F",
"; c #831F1F",
": c #A62827",
"> c #877E7D",
", c #908F8F",
"< c #9F9E9E",
"1 c #B1B2AF",
"2 c #C7BAB8",
"3 c #CAC9C9",
"4 c #D8D8D8",
"5 c #D9D8D8",
"6 c #E6E6E6",
"7 c #EAEAEA",
"8 c #EFEEEE",
"9 c #F4F4F4",
"0 c white",
"q c None",
/* pixels */
"qqqqqqqqqqqqqqqqqqqqqqqqqqqqqqqqqqqqqqqqqqqqqqqqqq",
"qqqqqqqqqqqqqqqqqqqqqqqqqqqqqqqqqqqqqqqqqqqqqqqqqq",
"qqqqqqqqqqqqqqqqqqqqqqqqqqqqqqqqqqqqqqqqqqqqqqqqqq",
"qqqqqqqqqqqqqqqqqqqqqqqqqqqqqqqqqqqqqqqqqqqqqqqqqq",
"qqqqqqqqqqqqqqqqqqqqqqqqqqqqqqqqqqqqqqqqqqqqqqqqqq",
"qqqqqqqqqqqqqqqqqqqqqqqqqqqqqqqqqqqqqqqqqqqqqqqqqq",
"qqqqqqqqqqqqqqqqqqqqqqqqqqqqqqqqqqqqqqqqqqqqqqqqqq",
"qqqqqqqqqqqqqqqqqqqqqqqqqqqqqqqqqqqqqqqqqqqqqqqqqq",
"qqqqqqqqqqqqqqqqqqqqqqqqqqqqqqqqqqqqqqqqqqqqqqqqqq",
"qqqqqqqqqqqqqqqqqqqqqqqqqqqqqqqqqqqqqqqqqqqqqqqqqq",
"qqqqqqqqqqqqqqqqqqqqqqqqqqqqqqqqqqqqqqqqqqqqqqqqqq",
"qqqqqqqqqqqqqqqqqqqqqqqqqqqqqqqqqqqqqqqqqqqqqqqqqq",
"qqqqqqqqqqqqqqqqqqqqqqqqqqqqqqqqqqqqqqqqqqqqqqqqqq",
"qqqqqqqqqqqqqqqqqqqqqqqqqqqqqqqqqqqqqqqqqqqqqqqqqq",
"qqqqqqqqqqqqqqqqq>@+*3qqqqqqqq<,2qqqqqqqqqqqqqqqqq",
"qqqqqqqqqqqqqqqq@ **. 3qqqqq1.   =qqqqqqqqqqqqqqqq",
"qqqqqqqqqqqqqqq, 5009 =qqqqq.&68, <qqqqqqqqqqqqqqq",
"qqqqqqqqqqqqqqq%&<@00X=qqqq1 7020o-qqqqqqqqqqqqqqq",
"qqqqqqqqqqqqqqqo=8101 1qqqq, 06=0.-qqqqqqqqqqqqqqq",
"qqqqqqqqqqqqqqq* <5<.%qqqqq2 200< 1qqqqqqqqqqqqqqq",
"qqqqqqqqqqqqqqqq*    X+ooo%&  %@ *qqqqqqqqqqqqqqqq",
"qqqqqqqqqqqqqqqq% .O#OOOOO.      3qqqqqqqqqqqqqqqq",
"qqqqqqqqqqqqqqq- #:;$#OO###$;;$#..4qqqqqqqqqqqqqqq",
"qqqqqqqqqqqqqqqo.:$.      . O$::; >qqqqqqqqqqqqqqq",
"qqqqqqqqqqqqqqq.#;            $:; -qqqqqqqqqqqqqqq",
"qqqqqqqqqqqqqqqXO$    XoX.    .;; >qqqqqqqqqqqqqqq",
"qqqqqqqqqqqqqqq& ;.   o&---*.  ;$ 1qqqqqqqqqqqqqqq",
"qqqqqqqqqqqqqqq1 O;$OO.    . .$; +qqqqqqqqqqqqqqqq",
"qqqqqqqqqqqqqqqq-  $:::;;;;;;;$  1qqqqqqqqqqqqqqqq",
"qqqqqqqqqqqqqqqqq<o  O##$$$#O  o2qqqqqqqqqqqqqqqqq",
"qqqqqqqqqqqqqqqqqqq<*o      o*<qqqqqqqqqqqqqqqqqqq",
"qqqqqqqqqqqqqqqqqqqqqqqq44qqqqqqqqqqqqqqqqqqqqqqqq",
"qqqqqqqqqqqqqqqqqqqqqqqqqqqqqqqqqqqqqqqqqqqqqqqqqq",
"qqqqqqqqqqqqqqqqqqqqqqqqqqqqqqqqqqqqqqqqqqqqqqqqqq",
"qqqqqqqqqqqqqqqqqqqqqqqqqqqqqqqqqqqqqqqqqqqqqqqqqq",
"qqqqqqqqqqqqqqqqqqqqqqqqqqqqqqqqqqqqqqqqqqqqqqqqqq",
"qqqqqqqqqqqqqqqqqqqqqqqqqqqqqqqqqqqqqqqqqqqqqqqqqq",
"qqqqqqqqqqqqqqqqqqqqqqqqqqqqqqqqqqqqqqqqqqqqqqqqqq",
"qqqqqqqqqqqqqqqqqqqqqqqqqqqqqqqqqqqqqqqqqqqqqqqqqq",
"qqqqqqqqqqqqqqqqqqqqqqqqqqqqqqqqqqqqqqqqqqqqqqqqqq",
"qqqqqqqqqqqqqqqqqqqqqqqqqqqqqqqqqqqqqqqqqqqqqqqqqq",
"qqqqqqqqqqqqqqqqqqqqqqqqqqqqqqqqqqqqqqqqqqqqqqqqqq",
"qqqqqqqqqqqqqqqqqqqqqqqqqqqqqqqqqqqqqqqqqqqqqqqqqq",
"qqqqqqqqqqqqqqqqqqqqqqqqqqqqqqqqqqqqqqqqqqqqqqqqqq",
"qqqqqqqqqqqqqqqqqqqqqqqqqqqqqqqqqqqqqqqqqqqqqqqqqq",
"qqqqqqqqqqqqqqqqqqqqqqqqqqqqqqqqqqqqqqqqqqqqqqqqqq",
"qqqqqqqqqqqqqqqqqqqqqqqqqqqqqqqqqqqqqqqqqqqqqqqqqq",
"qqqqqqqqqqqqqqqqqqqqqqqqqqqqqqqqqqqqqqqqqqqqqqqqqq",
"qqqqqqqqqqqqqqqqqqqqqqqqqqqqqqqqqqqqqqqqqqqqqqqqqq",
"qqqqqqqqqqqqqqqqqqqqqqqqqqqqqqqqqqqqqqqqqqqqqqqqqq"
};
