/* XPM */
static char *result[] = {
/* columns rows colors chars-per-pixel */
"50 50 56 1 ",
"  c #3C1D23",
". c #1C222E",
"X c #292127",
"o c #23242B",
"O c #292128",
"+ c #2C2B2A",
"@ c #3F2022",
"# c #45261F",
"$ c #47281F",
"% c #4A2A1E",
"& c #502F1C",
"* c #4F301E",
"= c #4E3A1D",
"- c #563617",
"; c #573817",
": c #5C3C16",
"> c #543419",
", c #573818",
"< c #5B3B19",
"1 c #603F15",
"2 c #432421",
"3 c #472821",
"4 c #4A2B22",
"5 c #4F3023",
"6 c #523223",
"7 c #523E24",
"8 c #5A3A22",
"9 c #5E4119",
"0 c #654315",
"q c #684715",
"w c #674817",
"e c #6A4815",
"r c #64441A",
"t c #68471D",
"y c #66491A",
"u c #6D4C1C",
"i c #714E1A",
"p c #6F501F",
"a c #75521C",
"s c #79561D",
"d c #7C591F",
"f c #5D4826",
"g c #6C4B21",
"h c #704F20",
"j c #745222",
"k c #785723",
"l c #7D5B21",
"z c #815E22",
"x c #856224",
"c c #896626",
"v c #8C6927",
"b c #896728",
"n c #8C6929",
"m c #916D2A",
"M c #95712B",
"N c #9A762E",
/* pixels */
" <>%%1h1>>01@<u<#--x20<-o.--u%0:4#11>#h1<>#:>->%r#",
" <-%#ez1>>002h-02-ix2it-..--400024g&>#gi--20>l2 :3",
" <r3@ihi,%0>@j-0@-vq2t--..--4quq1 zq- jqx##qqn  1#",
" -t32a1u8%q@@k00@tvq3:--.---40eqi kq- zqv#@qqq2 0#",
" 103............@m-q41-..-q-40qqq2............  0.",
"Oo................-s#1-..-q-3dq-.................o",
"Origoo........o.6g&a2--..-qq24qq-2.......o.... m0.",
" 1ii4<i-&&a0#1-@410a2--o.qqq04q0q@qq- --1q5qq- mqq",
" 0ia4ia13&ai@0-@21qa2--..qq-03z<q2qq- --eq6qq1 0m-",
"@0iz4k104qui@0a020s0#--1.-q-04m:q2aq> -1e-6qq @0M-",
" 0a251003qa0@0a02rsq%qq0.-e004hq-2hr1 1qe16qq@%qMq",
"@1x12-003qs0@ieq gsq#qq-.-eqq4jqq21r1 1q-06q- @qMq",
"@1x02-0q20aq@iq0 iiq#qq>.-qq>2jqq2qt1 ee-q6q1@ 0Nq",
" 0xk2-0q#qs 2aq0 i0q%---.-eq m1ae@b10 eeee5q1a -N:",
"@1in >0-3qd @iq0 i13#q--.-eq nqiq zie q>046q0d 0N1",
"21-m2,-0#0d23qq0@ui2%q--.eqq nqqq biq eqe54e0j Nqq",
"21>z2-<0#qd14qqe ei#2q--..-e nq002zae e0e&##qa Ne0",
"@h-b2--0#es-4q0e@ei#4q--..-q xx00@ci0 -ee%#%1a N0w",
"@h-n@>-12iz-400e qq%qq--..-e czq0$ciq zeee#-1s N0w",
"@t>b@k-0#iz-3-qq@qq%qq--..-e cqd-$ci0 z0eq@1qa N0e",
"@-ib@l-e%d0j410i@qq4q0--..-qq qq%4ei0 0z:0@qd- Nw%",
"@-hl@k-q#iqk31qe2q-4qq--..-:q xq#6qie -s-q@qd- Nw2",
"@0ik2z-q%-sk31qe2qjo3q0-..-11 .q#ce00 ee:q2qd- Ny2",
"@0hk@:kq3-az%1qq20h.2q0-..-0& .-@cqq- ee-q%qz- M02",
"2qks@-kr3-az%1e0207.oq00..-0#..-@veq- e-;e$ej, nq2",
"2<tz@1k1#-az%0002+o...qq..11 ..X3e00e e--a%l>> b0#",
"@<<d21lq#-iz%1003+r0#oqq..-r.%s.oq00e --;4#s;; xe3",
"2<qk21lq3:u8#1q03+-%$O-q..-0.#z.ocq0e -0-3$a-0 le4",
"2-ql21lq2qu5#1q02no.o0q-..-0....#x00e wdq4%a-rw 05",
"%<0z2:ze#q18#-qu2b00%qe-..-0q6qq%0z0e qxes$:er# 04",
"#q0z2:kq#q1z%0qi2xq0#qq-..0-q6qqi#0ae@ ced30t>  e3",
"200x2r0e300z&1qi2vq3%qq-..0-q4qqi$;0a @x0x3it0  q2",
"210x#r1q%008%01d4x02qe--..-004qqi2;qi  cex$iqe  02",
"#a0s2:1q#q06&-0z4l0i#q-...-003qq04qe- qc0z$tae rw2",
"40-d2-1q#018&-1x2lqi30;...-q040002qe- qcqz$-ae :s$",
"40-d#-0e#0-5--qx2lqi$0-..--024wq-2qe- q-xf$0ae 0l.",
"201+.o......o..x#-xu30-..--q@2-0-2..o......... x..",
"o....o............z030-..--e@@<q..................",
"X..oo..........o2-la$0-.o--0@@9q24.............d..",
"@d0q...a30y$000x22d$29-.o--w @9024q-  qrde%9-= x-.",
"#lrqgq-s$ey4%0yk##l#31-.o;q0 @:<26--  0rde#q-:@ -*",
"#d-q2q-k2y0->r0p##d22r-..;0e@k9-240-  e-s9#q-a  0$",
"#l-02euq#y;-*0wa 4qe49;..:qe 8:-#sq-  esw<#e-s pw#",
"#0k02que2q:r*00x240q#u-..;0e 52q@l0;e ej-:@w0e 9e$",
"#0l02esq2-r;50c0@dqq26-...<e <40@dqre el-:@wwy 00$",
"#rzw2qsq400%<0c0@s-%$<-...;e-%402s-ue le0w#eyy y02",
"%yde3ure#0t6>xwq@a-q38-...<9-%2q2d-he seew#ew0 90%",
"#qlqje0-30-6-c0@4e-e%8--..;90#2q%qjge ueee@ew0 0r2",
"#0qz%qr-#q-$kiq 20-q5%--..-r0@2qq@zee rqee@qz- y02",
"#00d%q10#q1$vuq 2-0q6q--..-1q  uq xee <qee ex- 0y@"
};
