/* XPM */
static char *result[] = {
/* columns rows colors chars-per-pixel */
"50 50 50 1 ",
"  c #3F2E1F",
". c #1D222D",
"X c #2C2627",
"o c #23242B",
"O c #2A2629",
"+ c #2B2929",
"@ c #332724",
"# c #352C26",
"$ c #3C2C22",
"% c #3E3124",
"& c #442D16",
"* c #44261E",
"= c #432D1E",
"- c #4D2E1C",
"; c #4F3417",
": c #46321D",
"> c #4C331C",
", c #563617",
"< c #583717",
"1 c #573917",
"2 c #5D3C16",
"3 c #53341B",
"4 c #583719",
"5 c #53391C",
"6 c #5B3B1A",
"7 c #603F16",
"8 c #603F1B",
"9 c #452620",
"0 c #432C21",
"q c #4A2B21",
"w c #413222",
"e c #493622",
"r c #4D3A22",
"t c #433528",
"y c #513221",
"u c #523E20",
"i c #5C3D21",
"p c #5D401F",
"a c #644216",
"s c #684617",
"d c #64431A",
"f c #68471B",
"g c #6B4A1B",
"h c #714F1D",
"j c #72511D",
"k c #5F4222",
"l c #634323",
"z c #684725",
"x c #6C8FDF",
"c c None",
/* pixels */
"-*cxxxxxxxxxxxxxxxxxxxxxxxxxxxxxxxxxxxxxxxxxxxxc&*",
";-3cxxxxxxxxxxxxxxxxxxxxxxxxxxxxxxxxxxxxxxxxxxc&;-",
"-;-3ccxxxxxxxxxxxxxxxxxxxxxxxxxxxxxxxxxxxxxxxc;;,3",
";-,-34cxxxxxxxxxxxxxxxxxxxxxxxxxxxxxxxxxxxxxci,3,-",
"3373333cxxxxxxxxxxxxxxxxxxxxxxxxxxxxxxxxxxxcz3336-",
"y4s333,-cxxxxxxxxxxxxxxxxxxxxxxxxxxxxxxxxxc>63,,dq",
"3ys6,433;xxxxxxxxxxxxxxxxxxxxxxxxxxxxxxxxc,36663a9",
"#+w>363<>xxxxxxxxxxxxxxxxxxxxxxxxxxxxxxxc>3-36d00o",
"uo.O$u3d3xxxxxxxxxxxxxxxxxxxxxxxxxxxxxxxc>434uro.t",
"f#+..#yf>xxxxxxxxxxxxxxxxxxxxxxxxxxxxxxxc:643#..Oi",
"gi5$O.%6exxxxxxxxxxxxxxxxxxxxxxxxxxxxxxxc:d5+.O%63",
"f8d3i$$40xxxxxxxxxxxxxxxxxxxxxxxxxxxxxxxc>6$o@466>",
"d37673y8$xxxxxxxxxxxxxxxxxxxxxxxxxxxxxxxc<6>>-2663",
"z3267766 xxxxxxxxxxxxxxxxxxxxxxxxxxxxxxxc762<372,y",
"j3668767=xxxxxxxxxxxxxxxxxxxxxxxxxxxxxxxcad663763y",
"j3266d68,xxxxxxxxxxxxxxxxxxxxxxxxxxxxxxxc7d664d6a3",
"f3<63p66>xxxxxxxxxxxxxxxxxxxxxxxxxxxxxxxcaa26476sl",
"d3<66664>xxxxxxxxxxxxxxxxxxxxxxxxxxxxxxxcpddd47ysz",
"z3<6d243>xxxxxxxxxxxxxxxxxxxxxxxxxxxxxxxcpf6f46-dz",
"d3<6d264;xxxxxxxxxxxxxxxxxxxxxxxxxxxxxxxc6f6s47-dz",
"zi67d2425xxxxxxxxxxxxxxxxxxxxxxxxxxxxxxxc>zfg6s,az",
"jk78d246;xxxxxxxxxxxxxxxxxxxxxxxxxxxxxxxc:f6f6a4sl",
"zi86f215>xxxxxxxxxxxxxxxxxxxxxxxxxxxxxxxc:d6d626sl",
"h4d4gp6>5xxxxxxxxxxxxxxxxxxxxxxxxxxxxxxxc>>pa476fl",
"g3d6f7>#>xxxxxxxxxxxxxxxxxxxxxxxxxxxxxxxc>$48,74dl",
"z4s3f6e$:xxxxxxxxxxxxxxxxxxxxxxxxxxxxxxxcw@u8,487i",
"d3f4663$:xxxxxxxxxxxxxxxxxxxxxxxxxxxxxxxc:$r7,,66i",
"g6g6466u,xxxxxxxxxxxxxxxxxxxxxxxxxxxxxxxc=$yf,4366",
"f4s<86d75xxxxxxxxxxxxxxxxxxxxxxxxxxxxxxxc:>6f4f473",
"g4d6ddz6>xxxxxxxxxxxxxxxxxxxxxxxxxxxxxxxc>2p83h879",
"g47667f7 xxxxxxxxxxxxxxxxxxxxxxxxxxxxxxxc>6p8yg6d9",
"g47642ld$xxxxxxxxxxxxxxxxxxxxxxxxxxxxxxxc>228uj8s9",
"f3643uid$xxxxxxxxxxxxxxxxxxxxxxxxxxxxxxxc,4266jdsq",
"d>>$Oo%6$xxxxxxxxxxxxxxxxxxxxxxxxxxxxxxxc<->=>z4s3",
"5Xo..+t6$xxxxxxxxxxxxxxxxxxxxxxxxxxxxxxxc,-$.o+#e3",
"#..+%64y xxxxxxxxxxxxxxxxxxxxxxxxxxxxxxxc<30+o...t",
"..#51d34$xxxxxxxxxxxxxxxxxxxxxxxxxxxxxxxc633-0%OoO",
">:562p43$xxxxxxxxxxxxxxxxxxxxxxxxxxxxxxxc433-3f5we",
"s2a41a66=xxxxxxxxxxxxxxxxxxxxxxxxxxxxxxxc>-43>f,6>",
"p1a51g66>xxxxxxxxxxxxxxxxxxxxxxxxxxxxxxxc>36a6d379",
"76s34s36>xxxxxxxxxxxxxxxxxxxxxxxxxxxxxxxc:>68683d>",
"f6s66d-74xxxxxxxxxxxxxxxxxxxxxxxxxxxxxxxc>>6f7d4d3",
"g4a3id361xxxxxxxxxxxxxxxxxxxxxxxxxxxxxxxc>36d6a6a3",
"g8244d36cxxxxxxxxxxxxxxxxxxxxxxxxxxxxxxxc>4pd4s<a3",
"jd2<623cxxxxxxxxxxxxxxxxxxxxxxxxxxxxxxxxc>,<d3s6s3",
"h62,<<cxxxxxxxxxxxxxxxxxxxxxxxxxxxxxxxxxxcc<7qa6g>",
"f42-,cxxxxxxxxxxxxxxxxxxxxxxxxxxxxxxxxxxxxxc3q78g3",
"7,2;cxxxxxxxxxxxxxxxxxxxxxxxxxxxxxxxxxxxxxxxc-78s3",
"<,7cxxxxxxxxxxxxxxxxxxxxxxxxxxxxxxxxxxxxxxxxxc<6g3",
"<,cxxxxxxxxxxxxxxxxxxxxxxxxxxxxxxxxxxxxxxxxxxxcc63"
};
