/* XPM */
static char *result[] = {
/* columns rows colors chars-per-pixel */
"50 50 5 1 ",
"  c #654029",
". c #472E1A",
"X c #583823",
"o c #563722",
"O c #553621",
/* pixels */
"                                                  ",
"                                                  ",
".......XXXXXX          XXXXX.................XXXX ",
"............................................XXX   ",
"                                 XXX.X            ",
"                                    .             ",
"                                    .             ",
"               XXXX                X.X            ",
"          XX XXXXXXXXXXXXXXXXXXXX....XXX          ",
"                          X..........XXXX  XXXXX X",
"                     X.........oooooo.X           ",
"                 X......ooooooooooooo.            ",
"             XX.....ooooooooooooooooo.            ",
"XXXXXXXXXXXXXX...oooooooooooooooooooo.X           ",
"         XXXX..oooooooooooooooooooooo.XXXXX       ",
"            ..ooooooooooooooooooooooo.            ",
"         XXX..OOOOOOOOOOOOooooooooooo.X           ",
"..........................OOOOOOOOOOO.X           ",
".......................................OOOOOOOOOOO",
".                    XX...........................",
".                                             XX..",
"                                                  ",
"                                                  ",
"                                                  ",
"X XXX  XXXXXXXXXXXX  X    X                       ",
"                                                  ",
"                                                  ",
"                                                  ",
"                                                  ",
"                                                  ",
"X                                                 ",
"XXXXXXXXXX  XXXX                                  ",
"XXX   XX                                          ",
"                                                  ",
"                                                  ",
"                                                  ",
"X                                                 ",
".........X   X.....X     X...XXX        OOOOOOOOOO",
".X X..............................................",
"                                  XXX.XXX         ",
"                                     .XX          ",
"                                      o           ",
"                                      o           ",
"                                      o           ",
"                         XXX X        o           ",
"                     XXXXXXXXXXX      X           ",
"XXXXXXXXXX    XXXXXXXX            XX   X          ",
"XXX             XXXXXXX               oXXXXX XX XX",
"                      XXXX            oXX         ",
"                         XXXXXXX  XX  XX          "
};
