/* XPM */
static char *result[] = {
/* columns rows colors chars-per-pixel */
"50 50 10 1 ",
"  c #080000",
". c #B97371",
"X c #67979C",
"o c #68989C",
"O c #CF9C9B",
"+ c #9CC8CC",
"@ c #9CC8CD",
"# c #E3C6C5",
"$ c white",
"% c None",
/* pixels */
"%%%%%%%%%%%%%%%%%                 %%%%%%%%%%%%%%%%",
"%%%%%%%%%%%%%                         %%%%%%%%%%%%",
"%%%%%%%%%%%%%                         %%%%%%%%%%%%",
"%%%%%%%%%        OOOOOOOOOOOOOOOOO         %%%%%%%",
"%%%%%%%%%        OOOOOOOOOOOOOOOOO         %%%%%%%",
"%%%%%%%      OO#####################OO       %%%%%",
"%%%%%%%      OO#####################OO       %%%%%",
"%%%%     OO##############################OO    %%%",
"%%%%     OO##############################OO    %%%",
"%%%%     OO##############################OO    %%%",
"%%     OO##################################OO    %",
"%%     OO##################################OO    %",
"    OOO######################################OO   ",
"    OOO######################################OO   ",
"    ###########################################   ",
"    ###########################################   ",
"  OO###########################################OO ",
"  OO###########################################OO ",
"  ############################################### ",
"  ############################################### ",
"OO###############################################O",
"OO###############################################O",
"OO###############################################O",
"OO###############################################O",
"    OOO######  #########  #######################O",
"    OOO######  #########  #######################O",
"    OOO######  #########  #######################O",
"       OO####             @@###################OO.",
"       OO####             @@###################OO.",
"$$$$$$$  ####OO         @@@@@@#################OO ",
"$$$$$$$  ####OO         @@@@@@#################OO ",
"         ######+++++++++##oo#################OO.. ",
"         ######+++++++++##oo#################OO.. ",
"  OOOOOOO######@@@@@@@@@#####################OO   ",
"  OOOOOOO######@@@@@@@@@#####################OO   ",
"  ..OOO########@@@@+++++###################OO..   ",
"  ..OOO########@@@@+++++###################OO..   ",
"    ...OO######@@@@@@+++#################OO..    %",
"    ...OO######@@@@@@+++#################OO..    %",
"%%     ..OO####@@@@@@@@@############OOOOO..    %%%",
"%%     ..OO####@@@@@@@@@############OOOOO..    %%%",
"%%%%       ..OOXX@@@@@@@##########OO..       %%%%%",
"%%%%       ..OOXX@@@@@@@##########OO..       %%%%%",
"%%%%       ..OOXX@@@@@@@##########OO..       %%%%%",
"%%%%%%%          XXXXXXXOOOOOOOO..         %%%%%%%",
"%%%%%%%          XXXXXXXOOOOOOOO..         %%%%%%%",
"%%%%%%%%%%%                           %%%%%%%%%%%%",
"%%%%%%%%%%%                           %%%%%%%%%%%%",
"%%%%%%%%%%%%%%%%%                 %%%%%%%%%%%%%%%%",
"%%%%%%%%%%%%%%%%%                 %%%%%%%%%%%%%%%%"
};
