/* XPM */
static char *result[] = {
/* columns rows colors chars-per-pixel */
"50 50 9 1 ",
"  c #080000",
". c #B97371",
"X c #67979C",
"o c #CF9C9B",
"O c #9CC8CC",
"+ c #9CC8CD",
"@ c #E3C6C5",
"# c white",
"$ c None",
/* pixels */
"$$$$$$$$$$$$$$$$$               $$$$$$$$$$$$$$$$$$",
"$$$$$$$$$$$$$$$$$               $$$$$$$$$$$$$$$$$$",
"$$$$$$$$$$$$$                       $$$$$$$$$$$$$$",
"$$$$$$$$$$$$$                       $$$$$$$$$$$$$$",
"$$$$$$$$$        ooooooooooooooo        $$$$$$$$$$",
"$$$$$$$$$        ooooooooooooooo        $$$$$$$$$$",
"$$$$$$$      oo@@@@@@@@@@@@@@@@@@@oo      $$$$$$$$",
"$$$$$$$      oo@@@@@@@@@@@@@@@@@@@oo      $$$$$$$$",
"$$$$$    oo@@@@@@@@@@@@@@@@@@@@@@@@@@@oo    $$$$$$",
"$$$$$    oo@@@@@@@@@@@@@@@@@@@@@@@@@@@oo    $$$$$$",
"$$$    oo@@@@@@@@@@@@@@@@@@@@@@@@@@@@@@@oo    $$$$",
"$$$    oo@@@@@@@@@@@@@@@@@@@@@@@@@@@@@@@oo    $$$$",
"$    oo@@@@@@@@@@@@@@@@@@@@@@@@@@@@@@@@@@@oo    $$",
"$    oo@@@@@@@@@@@@@@@@@@@@@@@@@@@@@@@@@@@oo    $$",
"$    @@@@@@@@@@@@@@@@@@@@@@@@@@@@@@@@@@@@@@@    $$",
"$    @@@@@@@@@@@@@@@@@@@@@@@@@@@@@@@@@@@@@@@    $$",
"   oo@@@@@@@@@@@@@@@@@@@@@@@@@@@@@@@@@@@@@@@oo    ",
"   oo@@@@@@@@@@@@@@@@@@@@@@@@@@@@@@@@@@@@@@@oo    ",
"   @@@@@@@@@@@@@@@@@@@@@@@@@@@@@@@@@@@@@@@@@@@    ",
"   @@@@@@@@@@@@@@@@@@@@@@@@@@@@@@@@@@@@@@@@@@@    ",
" oo@@@@@@@@@@@@@@@@@@@@@@o        oo@@@@@@@@@@oo  ",
" oo@@@@@@@@@@@@@@@@@@@@@@o        oo@@@@@@@@@@oo  ",
" oo@@@@@@@@@@@@@@@@@@@@@@ ####      @@@@@@@@@@oo  ",
" oo@@@@@@@@@@@@@@@@@@@@@@ ####      @@@@@@@@@@oo  ",
" oo@@@@@@@@@@@@@@@@@@@@@@ ####      @@@@@@@@@@oo  ",
" oo@@@@@@@@@@@@@@@@@@@@@@ ####      @@@@@@@@@@oo  ",
" oo@@@@@@@@@@@@@@@@@@@@@@           @@@@@@oo      ",
" oo@@@@@@@@@@@@@@@@@@@@@@           @@@@@@oo      ",
" ..oo@@@@@@@@@@@@@@@@@@@@           @@@@oo        ",
" ..oo@@@@@@@@@@@@@@@@@@@@           @@@@oo        ",
"   oo@@@@@@@@@@@@@@@@@@@@o        oo@@@@  ######  ",
"   oo@@@@@@@@@@@@@@@@@@@@o        oo@@@@  ######  ",
"   ..oo@@@@@@@@@@@@@@@@@@@OOOOOOOO@@@@@@          ",
"   ..oo@@@@@@@@@@@@@@@@@@@OOOOOOOO@@@@@@          ",
"$    oo@@@@@@@@@@@@@@@@@@@OO++++++@@@@@@oooooo    ",
"$    oo@@@@@@@@@@@@@@@@@@@OO++++++@@@@@@oooooo    ",
"$    ..oo@@@@@@@@@@@@@@@@@OOOO++++@@@@@@@@oo..    ",
"$    ..oo@@@@@@@@@@@@@@@@@OOOO++++@@@@@@@@oo..    ",
"$$$    ..oo@@@@@@@@@@@@@@@OO++++++@@@@@@oo..    $$",
"$$$    ..oo@@@@@@@@@@@@@@@OO++++++@@@@@@oo..    $$",
"$$$$$    ..oooo@@@@@@@@@@@++++++++@@@@oo..    $$$$",
"$$$$$    ..oooo@@@@@@@@@@@++++++++@@@@oo..    $$$$",
"$$$$$$$      ..oo@@@@@@@@@++++++XXoo..      $$$$$$",
"$$$$$$$      ..oo@@@@@@@@@++++++XXoo..      $$$$$$",
"$$$$$$$$$        ..oooooooXXXXXX          $$$$$$$$",
"$$$$$$$$$        ..oooooooXXXXXX          $$$$$$$$",
"$$$$$$$$$$$$$                         $$$$$$$$$$$$",
"$$$$$$$$$$$$$                         $$$$$$$$$$$$",
"$$$$$$$$$$$$$$$$$               $$$$$$$$$$$$$$$$$$",
"$$$$$$$$$$$$$$$$$               $$$$$$$$$$$$$$$$$$"
};
