/* XPM */
static char *result[] = {
/* columns rows colors chars-per-pixel */
"50 40 189 2 ",
"   c #5D392D",
".  c #794D3F",
"X  c #8E5E52",
"o  c #8E5D51",
"O  c #8C5D51",
"+  c #8B5C50",
"@  c #8C5C50",
"#  c #8D5D51",
"$  c #8E5E51",
"%  c #8B5B4D",
"&  c #8A594A",
"*  c #8D5C4F",
"=  c #7E5143",
"-  c #74483A",
";  c #784C3E",
":  c #875646",
">  c #89594A",
",  c #8B5A4C",
"<  c #89584A",
"1  c #7C4F41",
"2  c #865648",
"3  c #875647",
"4  c #855343",
"5  c #895849",
"6  c #825243",
"7  c #6E4436",
"8  c #5C392E",
"9  c #794C3F",
"0  c #784A3B",
"q  c #835446",
"w  c #8D5D50",
"e  c #875546",
"r  c #865545",
"t  c #855444",
"y  c #7A4B3B",
"u  c #825242",
"i  c #845242",
"p  c #835140",
"a  c #855443",
"s  c #845342",
"d  c #734738",
"f  c #5E3A2E",
"g  c #6F4436",
"h  c #7A4D3F",
"j  c #86574A",
"k  c #8C5B4E",
"l  c #8A594B",
"z  c #845241",
"x  c #7C4C3C",
"c  c #714637",
"v  c #764A3C",
"b  c #88594C",
"n  c #8D5C50",
"m  c #865444",
"M  c #7C4D3C",
"N  c #75493B",
"B  c #8C5D50",
"V  c #885749",
"C  c #855445",
"Z  c #87584B",
"A  c #7E4E3D",
"S  c #7F4F3E",
"D  c #794B3C",
"F  c #7B4D3D",
"G  c #89594B",
"H  c #885748",
"J  c #7E4D3D",
"K  c #825040",
"L  c #814F3F",
"P  c #7F4E3E",
"I  c #714536",
"U  c #714537",
"Y  c #815040",
"T  c #82503F",
"R  c #76483A",
"E  c #724638",
"W  c #865546",
"Q  c #754839",
"!  c #7D4D3D",
"~  c #88584B",
"^  c #81503F",
"/  c #734638",
"(  c #77493A",
")  c #804F3E",
"_  c #7B4B3C",
"`  c #78493A",
"'  c #825140",
"]  c #794A3A",
"[  c #7C4D3D",
"{  c #7A4B3C",
"}  c #784A3A",
"|  c #794A3B",
" . c #7B4C3C",
".. c #804F3F",
"X. c #7E4E3E",
"o. c #744738",
"O. c #724637",
"+. c #764839",
"@. c #734637",
"#. c #704436",
"$. c #754738",
"%. c #673F32",
"&. c #523228",
"*. c #653E31",
"=. c #724537",
"-. c #683F32",
";. c #643D31",
":. c #643D30",
">. c #6C4234",
",. c #684032",
"<. c #6A4133",
"1. c #714436",
"2. c #55342A",
"3. c #492D24",
"4. c #543329",
"5. c #5A372C",
"6. c #56342A",
"7. c #503127",
"8. c #40271F",
"9. c #563429",
"0. c #543328",
"q. c #56352A",
"w. c #57352A",
"e. c #5D392E",
"r. c #4B2E24",
"t. c #472C22",
"y. c #57362B",
"u. c #5A382C",
"i. c #543429",
"p. c #4A2D24",
"a. c #452A22",
"s. c #41281F",
"d. c #422820",
"f. c #4B2E25",
"g. c #6E4335",
"h. c #663F31",
"j. c #422920",
"k. c #523328",
"l. c #6D4234",
"z. c #513228",
"x. c #482D24",
"c. c #6D4235",
"v. c #704536",
"b. c #663E31",
"n. c #764939",
"m. c #6E4435",
"M. c #513227",
"N. c #663F32",
"B. c #6F4435",
"V. c #694133",
"C. c #4C2F25",
"Z. c #452B22",
"A. c #503227",
"S. c #623D30",
"D. c #6F4536",
"F. c #6C4334",
"G. c #472B22",
"H. c #412820",
"J. c #442A20",
"K. c #6A4233",
"L. c #674032",
"P. c #6B4234",
"I. c #6D4335",
"U. c #5A372B",
"Y. c #4D3026",
"T. c #643E30",
"R. c #6D4334",
"E. c #633D30",
"W. c #6B4233",
"Q. c #734737",
"!. c #452A21",
"~. c #643E31",
"^. c #653F31",
"/. c #523327",
"(. c #3E261E",
"). c #613C2F",
"_. c #623D2F",
"`. c #623C2F",
"'. c #5E3A2D",
"]. c #4F3127",
"[. c #553429",
"{. c #442A21",
"}. c #5D3A2D",
"|. c #40281F",
" X c #3B241C",
".X c #3C251C",
"XX c #39231B",
"oX c #3D251D",
"OX c #3A241C",
/* pixels */
"                                                                                                    ",
". . . . . . . . . . . . . . . . . . . . . . . . . . . . . . . . . . . . . . . . . . . . . . . . . . ",
"X X X X X X X X X X X X X X X X X X o o o o o o o o X X X X X O + @ X # o X X X X X X X X X X X X $ ",
"X X X X X X X X X X X X X X X X X % & & & & & & & & * X X X X = - ; # : > X X X X X X X X X X X X , ",
", , , , , , , , , , < 1 2 , , , , 3 4 4 4 4 4 4 4 4 5 , , , , 6 7 8 9 0 q w , , w * , , , , , , , e ",
"r r r r r r r r r r t y u r r r r i p p p p p p p p a r r r r s d f g h j k r r l > r r r r r r r z ",
"p p p p p p p p p p p p p p p p p p p p p p p p p p p p p p p p x c v b n < p p r m p p p p p p p p ",
"p p p p p p p p p p p p p p p p p p p p p p p p p p p p p p p p M N B X V p p p p p p p p p p p p p ",
"p p p p p p p p p p p p p p p p p p p p p p p p p p p p p p p p C Z t t i p p p p p p p p p p p p p ",
"p p p p p p p p p p p p p p p p p p p p p p p p p p p p p p p p 4 : p p p p p p p p p p p p p p p p ",
"p p p p p p p p p p p p A S p p p p p p p p p p p p p p p p p p p p p p p p p p p p p p p p p p p p ",
"p p p p p p p p p p p p D F p p p p p p p p p p p p p p p p p p p p p p p p p p p p p p p p p p p p ",
"p p p p p p p p p p p p G H p p p p p p p p p p p p p p p p p p p p p p p p p p p p p p p p p p p p ",
"p p p p p p p p p p p p t 4 p p p p p p p p p p p p p p p p p p p p p p p p p p p p p p p p p p p p ",
"p p p p p p p p p p p p p p p p p p p p p p p p p p p p p p p p p p p p p p p p p p p p p p p p p p ",
"J A K p p p p p p p p p p p p p p p p p p p p p p p p p p p p p p p p p p p p p p L P p p p p p p p ",
"I U Y p p p p p p p p p p p p p T p p p p p p p p p p p p p p p p p p p p p p p p x R p p p p p p p ",
"x E b W p p p p p p p p p p p K Q ! p p p p p p p p p p p p p p p p p p p p p p p W ~ p p p p p p p ",
"^ ! C s p p p p p p p p p p p K / x p p p p p p p p p p p p p p p ^ ( ) ! _ p p p 4 r p p p p ^ ` ) ",
"! ' x ) ) ! p ! S p T x L p ^ _ ] y A p p p p p p p p P ! p [ ) ) { } y | |  . ...S  . .^ X.A ..U J ",
"o.A O.y y +.P +.y P ! U _ P  .I ! +.+.P P T p T ) p ..y ( P +._ | @.X.o.` _ #.#.y } #.#.x | ` ! $.x ",
"#.#.#.#.} P #.P } #.#.#.#.#.#.#.#.#.#.#.#.X.p ! O.^ +.| A I P ` #.#.#.#.#.#.#.#.#.#.#.#.#._ x / T Q ",
"%.&.&.*.=./ #./ =.#.#.#.#.#.-.&.&.;.:.&.&.>.o./ #.o.U =./ #./ =.#.#.#.#.#.#.#.#.,.<.#.#.#.O.@.1.o.U ",
"2.3.3.4.5.5.5.5.5.5.5.5.5.5.6.3.3.4.7.8.8.4.5.5.5.5.5.5.5.5.5.5.5.5.5.5.9.0.5.5.q.w.5.5.5.5.5.5.5.5.",
"e.e.e.e.e.e.e.e.e.e.e.e.e.e.e.e.e.e.q.r.t.y.e.e.e.e.e.e.e.e.e.e.u.i.p.a.s.d.f.u.e.e.e.e.e.e.e.e.e.e.",
"L L L L L L L L L L L L L L L L L L y g.h.y L L L L L L L L L L y <.7.8.j.f.k.{ L L L L L L L L L L ",
"=.=.=.=.=.=.=.=.=.=.=.=.=.=.=.=.=.=.U / ) Q =.=.=.=.=.=.=.=.=.=.U g l.z.x.4.c.U =.=.=.=.=.=.=.=.=.=.",
"v.v.v.v.v.v.v.v.<.b.%.g v.v.v.v.v.v.v.U n.c v.v.v.v.v.v.v.v.v.v.v.m.h.M.3.&.N.B.v.v.v.v.v.v.v.v.v.v.",
"v.v.v.v.v.v.v.v.c c c v.v.v.v.v.v.v.v.v.v.v.v.v.v.v.v.v.v.v.v.v.v.B.V.C.Z.A.S.m.v.v.v.v.v.v.v.v.v.v.",
"v.v.v.v.v.v.v.v.} A M c v.v.v.v.v.v.v.v.v.v.v.v.v.v.v.v.v.v.v.v.v.D.F.G.H.A.S.m.v.v.v.v.v.v.v.v.v.v.",
"v.v.v.v.v.v.v.v.v.v.v.v.v.v.v.v.v.v.v.v.v.v.v.v.v.v.v.v.D.v.v.v.v.m.S.J.H.A.S.m.v.v.v.v.v.v.v.v.v.v.",
"v.v.v.v.v.v.v.v.v.v.v.v.v.v.v.v.v.v.v.v.v.v.v.v.v.v.v.K.%.v.v.v.v.v.m.t.H.A.S.m.,.V.v.v.v.v.v.v.v.v.",
"v.v.v.v.v.v.v.v.v.v.v.v.v.>.%.L.m.K.K.m.L.m.P.<.v.v.v.I.B. .O.v.v.v.v.U.Y.C.i.T.V.V.V.v.v.v.v.v.v.v.",
"m.K.g F.R.v.v.v.R.<.P.D.>.h.E.L.V.,.,.V.L.V.,.,.W.D.v.v.Q. .O.v.v.g K.,.i.!.f.f L.V.,.<.B.v.v.v.v.v.",
"W.~.>.^.h.I.I.I.,.T.*.F.%.S.~.R.E.V.,.E.I.T.,.V.S.F.g B.m.v.m.B.g >.~.P./.(.f.f ).N.K.).P.B.g m.v.m.",
"^.B.T.).).).).).V.v.m.E.P.V.).).).).).).).).).).).).P.V.*.v.T.<.K.T.B.^.C.(.f.f ).).).).).<.P.T.g h.",
"_.~.`.).).).).).E.*.T.).T.E.).).).).).'.].].].[.).).E.E._.*.`.E.E.`.~.[.{.(.f.f ).).  ].}.E.E.`.~._.",
"i.i.i.i.i.i.i.i.i.i.i.i.i.i.i.i.i.i.i.k.3.j.|.t.i.i.i.i.i.i.i.i.i.i.i.C.s. Xj.&.i.i.7.s.7.i.i.i.i.i.",
"{.{.{.{.{.{.{.{.{.{.{.{.{.{.{.{.{.{.{.{.{..XXXoX{.{.{.{.{.{.{.{.{.{.{.{.(.XXOXj.{.{.H.XXd.{.{.{.{.{.",
"XXXXXXXXXXXXXXXXXXXXXXXXXXXXXXXXXXXXXXXXXXXXXXXXXXXXXXXXXXXXXXXXXXXXXXXXXXXXXXXXXXXXXXXXXXXXXXXXXXXX"
};
